<svg xmlns="http://www.w3.org/2000/svg" width="960" height="640" viewBox="0 0 960 640"><rect x="0" y="0" width="960" height="640" fill="#10282d" /><path d="M-100 60l-120 550 240-160-80-200" fill="none" stroke="#163a3a" stroke-width="3"/><path d="M70 60l-120 550 240-160-80-200" fill="none" stroke="#163a3a" stroke-width="3"/><path d="M240 60l-120 550 240-160-80-200" fill="none" stroke="#163a3a" stroke-width="3"/><path d="M410 60l-120 550 240-160-80-200" fill="none" stroke="#163a3a" stroke-width="3"/><path d="M580 60l-120 550 240-160-80-200" fill="none" stroke="#163a3a" stroke-width="3"/><path d="M750 60l-120 550 240-160-80-200" fill="none" stroke="#163a3a" stroke-width="3"/><path d="M920 60l-120 550 240-160-80-200" fill="none" stroke="#163a3a" stroke-width="3"/><path d="M1090 60l-120 550 240-160-80-200" fill="none" stroke="#163a3a" stroke-width="3"/><path d="M100 590V90H860V590" fill="none" stroke="#779182" stroke-width="3"/><circle cx="96" cy="400" r="40" fill="#69d6bc"/></svg>