<svg xmlns="http://www.w3.org/2000/svg" width="960" height="640" viewBox="0 0 960 640"><rect x="0" y="0" width="960" height="640" fill="#272535" /><path d="M-200 60l-260 580h40L-160 60z" fill="#71445d" stroke="none" stroke-width="1"/><path d="M-110 60l-260 580h40L-70 60z" fill="#71445d" stroke="none" stroke-width="1"/><path d="M-20 60l-260 580h40L20 60z" fill="#71445d" stroke="none" stroke-width="1"/><path d="M70 60l-260 580h40L110 60z" fill="#71445d" stroke="none" stroke-width="1"/><path d="M160 60l-260 580h40L200 60z" fill="#71445d" stroke="none" stroke-width="1"/><path d="M250 60l-260 580h40L290 60z" fill="#71445d" stroke="none" stroke-width="1"/><path d="M340 60l-260 580h40L380 60z" fill="#71445d" stroke="none" stroke-width="1"/><path d="M430 60l-260 580h40L470 60z" fill="#71445d" stroke="none" stroke-width="1"/><path d="M520 60l-260 580h40L560 60z" fill="#71445d" stroke="none" stroke-width="1"/><path d="M610 60l-260 580h40L650 60z" fill="#71445d" stroke="none" stroke-width="1"/><path d="M700 60l-260 580h40L740 60z" fill="#71445d" stroke="none" stroke-width="1"/><path d="M790 60l-260 580h40L830 60z" fill="#71445d" stroke="none" stroke-width="1"/><path d="M880 60l-260 580h40L920 60z" fill="#71445d" stroke="none" stroke-width="1"/><path d="M970 60l-260 580h40L1010 60z" fill="#71445d" stroke="none" stroke-width="1"/><path d="M1060 60l-260 580h40L1100 60z" fill="#71445d" stroke="none" stroke-width="1"/><path d="M1150 60l-260 580h40L1190 60z" fill="#71445d" stroke="none" stroke-width="1"/><rect x="72" y="79" width="816" height="479" fill="#171e2a" /><circle cx="60" cy="95" r="10" fill="#de729b"/><path d="M56 91l8 8m-8 0l8-8" stroke="#efbb99" stroke-width="2"/><circle cx="60" cy="550" r="10" fill="#de729b"/><path d="M56 546l8 8m-8 0l8-8" stroke="#efbb99" stroke-width="2"/><circle cx="900" cy="95" r="10" fill="#de729b"/><path d="M896 91l8 8m-8 0l8-8" stroke="#efbb99" stroke-width="2"/><circle cx="900" cy="550" r="10" fill="#de729b"/><path d="M896 546l8 8m-8 0l8-8" stroke="#efbb99" stroke-width="2"/></svg>