<svg xmlns="http://www.w3.org/2000/svg" width="960" height="640" viewBox="0 0 960 640"><rect x="0" y="0" width="960" height="640" fill="#e4efea" /><path d="M-30 100C120 0 400 200 980 20" fill="none" stroke="#a7ccc26b" stroke-width="2"/><path d="M-30 188C120 55 400 260 980 110" fill="none" stroke="#a7ccc26b" stroke-width="2"/><path d="M-30 276C120 110 400 320 980 200" fill="none" stroke="#a7ccc26b" stroke-width="2"/><path d="M-30 364C120 165 400 380 980 290" fill="none" stroke="#a7ccc26b" stroke-width="2"/><path d="M-30 452C120 220 400 440 980 380" fill="none" stroke="#a7ccc26b" stroke-width="2"/><path d="M-30 540C120 275 400 500 980 470" fill="none" stroke="#a7ccc26b" stroke-width="2"/><path d="M-30 628C120 330 400 560 980 560" fill="none" stroke="#a7ccc26b" stroke-width="2"/><rect x="49" y="82" width="184" height="63" fill="#f6f8ed" /><path d="M66 117h40m-20-20v40" fill="none" stroke="#399385" stroke-width="8"/><path d="M120 543v12" fill="none" stroke="#8dbbb0" stroke-width="2"/><path d="M187 543v12" fill="none" stroke="#8dbbb0" stroke-width="2"/><path d="M254 543v12" fill="none" stroke="#8dbbb0" stroke-width="2"/><path d="M321 543v12" fill="none" stroke="#8dbbb0" stroke-width="2"/><path d="M388 543v12" fill="none" stroke="#8dbbb0" stroke-width="2"/><path d="M455 543v12" fill="none" stroke="#8dbbb0" stroke-width="2"/><path d="M522 543v12" fill="none" stroke="#8dbbb0" stroke-width="2"/><path d="M589 543v12" fill="none" stroke="#8dbbb0" stroke-width="2"/><path d="M656 543v12" fill="none" stroke="#8dbbb0" stroke-width="2"/><path d="M723 543v12" fill="none" stroke="#8dbbb0" stroke-width="2"/><path d="M790 543v12" fill="none" stroke="#8dbbb0" stroke-width="2"/><path d="M857 543v12" fill="none" stroke="#8dbbb0" stroke-width="2"/></svg>