<svg xmlns="http://www.w3.org/2000/svg" width="960" height="640" viewBox="0 0 960 640"><rect x="0" y="0" width="960" height="640" fill="#313054" rx="0"/><rect x="0" y="70" width="4" height="4" fill="#69678c" rx="0"/><rect x="197" y="131" width="4" height="4" fill="#69678c" rx="0"/><rect x="394" y="192" width="4" height="4" fill="#69678c" rx="0"/><rect x="591" y="253" width="4" height="4" fill="#69678c" rx="0"/><rect x="788" y="314" width="4" height="4" fill="#69678c" rx="0"/><rect x="25" y="375" width="4" height="4" fill="#69678c" rx="0"/><rect x="222" y="436" width="4" height="4" fill="#69678c" rx="0"/><rect x="419" y="497" width="4" height="4" fill="#69678c" rx="0"/><rect x="616" y="78" width="4" height="4" fill="#69678c" rx="0"/><rect x="813" y="139" width="4" height="4" fill="#69678c" rx="0"/><rect x="50" y="200" width="4" height="4" fill="#69678c" rx="0"/><rect x="247" y="261" width="4" height="4" fill="#69678c" rx="0"/><rect x="444" y="322" width="4" height="4" fill="#69678c" rx="0"/><rect x="641" y="383" width="4" height="4" fill="#69678c" rx="0"/><rect x="838" y="444" width="4" height="4" fill="#69678c" rx="0"/><rect x="75" y="505" width="4" height="4" fill="#69678c" rx="0"/><rect x="272" y="86" width="4" height="4" fill="#69678c" rx="0"/><rect x="469" y="147" width="4" height="4" fill="#69678c" rx="0"/><rect x="666" y="208" width="4" height="4" fill="#69678c" rx="0"/><rect x="863" y="269" width="4" height="4" fill="#69678c" rx="0"/><rect x="100" y="330" width="4" height="4" fill="#69678c" rx="0"/><rect x="297" y="391" width="4" height="4" fill="#69678c" rx="0"/><rect x="494" y="452" width="4" height="4" fill="#69678c" rx="0"/><rect x="691" y="513" width="4" height="4" fill="#69678c" rx="0"/><rect x="888" y="94" width="4" height="4" fill="#69678c" rx="0"/><rect x="125" y="155" width="4" height="4" fill="#69678c" rx="0"/><rect x="322" y="216" width="4" height="4" fill="#69678c" rx="0"/><rect x="519" y="277" width="4" height="4" fill="#69678c" rx="0"/><rect x="716" y="338" width="4" height="4" fill="#69678c" rx="0"/><rect x="913" y="399" width="4" height="4" fill="#69678c" rx="0"/><rect x="150" y="460" width="4" height="4" fill="#69678c" rx="0"/><rect x="347" y="521" width="4" height="4" fill="#69678c" rx="0"/><rect x="76" y="99" width="136" height="202" fill="#645d8e" rx="0"/><rect x="87" y="109" width="114" height="178" fill="#202c52" rx="0"/><ellipse cx="155" cy="155" rx="29" ry="29" fill="#efc974"/><rect x="139" y="109" width="7" height="178" fill="#645d8e" rx="0"/><rect x="87" y="195" width="114" height="7" fill="#645d8e" rx="0"/><rect x="230" y="245" width="550" height="24" fill="#b57979" rx="0"/><rect x="238" y="269" width="536" height="13" fill="#573853" rx="0"/><rect x="230" y="385" width="550" height="24" fill="#b57979" rx="0"/><rect x="238" y="409" width="536" height="13" fill="#573853" rx="0"/><rect x="230" y="525" width="550" height="24" fill="#b57979" rx="0"/><rect x="238" y="549" width="536" height="13" fill="#573853" rx="0"/><rect x="820" y="465" width="80" height="125" fill="#8375aa" rx="0"/><path d="M860 475Q802 330 846 294Q900 355 860 475" fill="#65b0a3" stroke="none" stroke-width="1"/><rect x="0" y="585" width="960" height="55" fill="#262843" rx="0"/></svg>