<svg xmlns="http://www.w3.org/2000/svg" width="960" height="640" viewBox="0 0 960 640"><rect x="0" y="0" width="960" height="640" fill="#154d68" rx="0"/><path d="M0 60V640M0 60H960" fill="none" stroke="#ffffff0e" stroke-width="1"/><path d="M40 60V640M0 100H960" fill="none" stroke="#ffffff0e" stroke-width="1"/><path d="M80 60V640M0 140H960" fill="none" stroke="#ffffff0e" stroke-width="1"/><path d="M120 60V640M0 180H960" fill="none" stroke="#ffffff0e" stroke-width="1"/><path d="M160 60V640M0 220H960" fill="none" stroke="#ffffff0e" stroke-width="1"/><path d="M200 60V640M0 260H960" fill="none" stroke="#ffffff0e" stroke-width="1"/><path d="M240 60V640M0 300H960" fill="none" stroke="#ffffff0e" stroke-width="1"/><path d="M280 60V640M0 340H960" fill="none" stroke="#ffffff0e" stroke-width="1"/><path d="M320 60V640M0 380H960" fill="none" stroke="#ffffff0e" stroke-width="1"/><path d="M360 60V640M0 420H960" fill="none" stroke="#ffffff0e" stroke-width="1"/><path d="M400 60V640M0 460H960" fill="none" stroke="#ffffff0e" stroke-width="1"/><path d="M440 60V640M0 500H960" fill="none" stroke="#ffffff0e" stroke-width="1"/><path d="M480 60V640M0 540H960" fill="none" stroke="#ffffff0e" stroke-width="1"/><path d="M520 60V640M0 580H960" fill="none" stroke="#ffffff0e" stroke-width="1"/><path d="M560 60V640M0 620H960" fill="none" stroke="#ffffff0e" stroke-width="1"/><path d="M600 60V640M0 660H960" fill="none" stroke="#ffffff0e" stroke-width="1"/><path d="M640 60V640M0 700H960" fill="none" stroke="#ffffff0e" stroke-width="1"/><path d="M680 60V640M0 740H960" fill="none" stroke="#ffffff0e" stroke-width="1"/><path d="M720 60V640M0 780H960" fill="none" stroke="#ffffff0e" stroke-width="1"/><path d="M760 60V640M0 820H960" fill="none" stroke="#ffffff0e" stroke-width="1"/><path d="M800 60V640M0 860H960" fill="none" stroke="#ffffff0e" stroke-width="1"/><path d="M840 60V640M0 900H960" fill="none" stroke="#ffffff0e" stroke-width="1"/><path d="M880 60V640M0 940H960" fill="none" stroke="#ffffff0e" stroke-width="1"/><path d="M920 60V640M0 980H960" fill="none" stroke="#ffffff0e" stroke-width="1"/><path d="M960 60V640M0 1020H960" fill="none" stroke="#ffffff0e" stroke-width="1"/><rect x="65" y="99" width="830" height="453" fill="#174356" rx="8"/><ellipse cx="80" cy="114" rx="6" ry="6" fill="#839b98"/><ellipse cx="879" cy="114" rx="6" ry="6" fill="#839b98"/><ellipse cx="80" cy="537" rx="6" ry="6" fill="#839b98"/><ellipse cx="879" cy="537" rx="6" ry="6" fill="#839b98"/><path d="M105 121H280M105 127H210M738 125H854M762 131H854" fill="none" stroke="#9ac4b7" stroke-width="2"/><rect x="105" y="568" width="22" height="13" fill="#102e42" rx="0"/><rect x="156" y="568" width="22" height="13" fill="#deb64e" rx="0"/><rect x="207" y="568" width="22" height="13" fill="#102e42" rx="0"/><rect x="258" y="568" width="22" height="13" fill="#deb64e" rx="0"/><rect x="309" y="568" width="22" height="13" fill="#102e42" rx="0"/><rect x="360" y="568" width="22" height="13" fill="#deb64e" rx="0"/><rect x="411" y="568" width="22" height="13" fill="#102e42" rx="0"/><rect x="462" y="568" width="22" height="13" fill="#deb64e" rx="0"/><rect x="513" y="568" width="22" height="13" fill="#102e42" rx="0"/><rect x="564" y="568" width="22" height="13" fill="#deb64e" rx="0"/><rect x="615" y="568" width="22" height="13" fill="#102e42" rx="0"/><rect x="666" y="568" width="22" height="13" fill="#deb64e" rx="0"/><rect x="717" y="568" width="22" height="13" fill="#102e42" rx="0"/><rect x="768" y="568" width="22" height="13" fill="#deb64e" rx="0"/></svg>