<svg xmlns="http://www.w3.org/2000/svg" width="960" height="640" viewBox="0 0 960 640"><rect x="0" y="0" width="960" height="640" fill="#ffe9d8" rx="0"/><path d="M-150 60L110 640" fill="none" stroke="#f6c7cb" stroke-width="24"/><path d="M-67 60L193 640" fill="none" stroke="#f6c7cb" stroke-width="24"/><path d="M16 60L276 640" fill="none" stroke="#f6c7cb" stroke-width="24"/><path d="M99 60L359 640" fill="none" stroke="#f6c7cb" stroke-width="24"/><path d="M182 60L442 640" fill="none" stroke="#f6c7cb" stroke-width="24"/><path d="M265 60L525 640" fill="none" stroke="#f6c7cb" stroke-width="24"/><path d="M348 60L608 640" fill="none" stroke="#f6c7cb" stroke-width="24"/><path d="M431 60L691 640" fill="none" stroke="#f6c7cb" stroke-width="24"/><path d="M514 60L774 640" fill="none" stroke="#f6c7cb" stroke-width="24"/><path d="M597 60L857 640" fill="none" stroke="#f6c7cb" stroke-width="24"/><path d="M680 60L940 640" fill="none" stroke="#f6c7cb" stroke-width="24"/><path d="M763 60L1023 640" fill="none" stroke="#f6c7cb" stroke-width="24"/><path d="M846 60L1106 640" fill="none" stroke="#f6c7cb" stroke-width="24"/><path d="M929 60L1189 640" fill="none" stroke="#f6c7cb" stroke-width="24"/><path d="M1012 60L1272 640" fill="none" stroke="#f6c7cb" stroke-width="24"/><path d="M1095 60L1355 640" fill="none" stroke="#f6c7cb" stroke-width="24"/><path d="M0 498Q200 474 480 499T960 498V640H0Z" fill="#afccc6" stroke="none" stroke-width="1"/><ellipse cx="65" cy="545" rx="20" ry="10" fill="#83aaa6"/><ellipse cx="178" cy="587" rx="20" ry="10" fill="#83aaa6"/><ellipse cx="291" cy="545" rx="20" ry="10" fill="#83aaa6"/><ellipse cx="404" cy="587" rx="20" ry="10" fill="#83aaa6"/><ellipse cx="517" cy="545" rx="20" ry="10" fill="#83aaa6"/><ellipse cx="630" cy="587" rx="20" ry="10" fill="#83aaa6"/><ellipse cx="743" cy="545" rx="20" ry="10" fill="#83aaa6"/><ellipse cx="856" cy="587" rx="20" ry="10" fill="#83aaa6"/><ellipse cx="969" cy="545" rx="20" ry="10" fill="#83aaa6"/><rect x="42" y="71" width="876" height="32" fill="#85587a" rx="6"/><path d="M90 103L120 153L150 103Z" fill="#e89b5d" stroke="none" stroke-width="1"/><path d="M174 103L204 153L234 103Z" fill="#739e9b" stroke="none" stroke-width="1"/><path d="M258 103L288 153L318 103Z" fill="#d56490" stroke="none" stroke-width="1"/><path d="M342 103L372 153L402 103Z" fill="#e89b5d" stroke="none" stroke-width="1"/><path d="M426 103L456 153L486 103Z" fill="#739e9b" stroke="none" stroke-width="1"/><path d="M510 103L540 153L570 103Z" fill="#d56490" stroke="none" stroke-width="1"/><path d="M594 103L624 153L654 103Z" fill="#e89b5d" stroke="none" stroke-width="1"/><path d="M678 103L708 153L738 103Z" fill="#739e9b" stroke="none" stroke-width="1"/><path d="M762 103L792 153L822 103Z" fill="#d56490" stroke="none" stroke-width="1"/><path d="M846 103L876 153L906 103Z" fill="#e89b5d" stroke="none" stroke-width="1"/></svg>