<svg xmlns="http://www.w3.org/2000/svg" width="960" height="640" viewBox="0 0 960 640"><rect x="0" y="0" width="960" height="640" fill="#eed7e4" rx="0"/><path d="M-200 55L170 560" fill="none" stroke="#f9ebcd" stroke-width="27"/><path d="M-111 55L259 560" fill="none" stroke="#f9ebcd" stroke-width="27"/><path d="M-22 55L348 560" fill="none" stroke="#f9ebcd" stroke-width="27"/><path d="M67 55L437 560" fill="none" stroke="#f9ebcd" stroke-width="27"/><path d="M156 55L526 560" fill="none" stroke="#f9ebcd" stroke-width="27"/><path d="M245 55L615 560" fill="none" stroke="#f9ebcd" stroke-width="27"/><path d="M334 55L704 560" fill="none" stroke="#f9ebcd" stroke-width="27"/><path d="M423 55L793 560" fill="none" stroke="#f9ebcd" stroke-width="27"/><path d="M512 55L882 560" fill="none" stroke="#f9ebcd" stroke-width="27"/><path d="M601 55L971 560" fill="none" stroke="#f9ebcd" stroke-width="27"/><path d="M690 55L1060 560" fill="none" stroke="#f9ebcd" stroke-width="27"/><path d="M779 55L1149 560" fill="none" stroke="#f9ebcd" stroke-width="27"/><path d="M868 55L1238 560" fill="none" stroke="#f9ebcd" stroke-width="27"/><path d="M957 55L1327 560" fill="none" stroke="#f9ebcd" stroke-width="27"/><rect x="247" y="110" width="466" height="442" fill="#378cac" rx="30"/><rect x="273" y="134" width="414" height="395" fill="#e9f0ea" rx="15"/><ellipse cx="100" cy="83" rx="12" ry="12" fill="#e0597644"/><ellipse cx="231" cy="256" rx="18" ry="18" fill="#e0597644"/><ellipse cx="362" cy="429" rx="24" ry="24" fill="#e0597644"/><ellipse cx="493" cy="182" rx="12" ry="12" fill="#e0597644"/><ellipse cx="624" cy="355" rx="18" ry="18" fill="#e0597644"/><ellipse cx="755" cy="108" rx="24" ry="24" fill="#e0597644"/><ellipse cx="106" cy="281" rx="12" ry="12" fill="#e0597644"/><ellipse cx="237" cy="454" rx="18" ry="18" fill="#e0597644"/><ellipse cx="368" cy="207" rx="24" ry="24" fill="#e0597644"/><path d="M80 515L116 174L148 175L186 515Z" fill="#d55770" stroke="none" stroke-width="1"/><path d="M792 515L833 148L867 148L903 515Z" fill="#e1ae42" stroke="none" stroke-width="1"/><rect x="0" y="570" width="960" height="70" fill="#7f3d64" rx="0"/></svg>